<svg xmlns="http://www.w3.org/2000/svg" width="400" height="400" viewBox="0 0 400 400"><rect width="100%" height="100%" fill="#DDDDDD"/><path fill="#999999" d="M108.175 181.16h6.28v38.32h-3.65q-.85 0-1.42-.28t-1.1-.94l-20.01-25.55q.16 1.75.16 3.24v23.53h-6.28v-38.32h3.74q.45 0 .78.04t.58.16.49.34q.24.23.53.6l20.09 25.65q-.08-.93-.13-1.83-.06-.9-.06-1.67zm25.82 10.71q3.02 0 5.49.98 2.48.98 4.24 2.78 1.77 1.8 2.72 4.4t.95 5.8q0 3.24-.95 5.83-.95 2.6-2.72 4.43-1.76 1.83-4.24 2.81-2.47.98-5.49.98-3.05 0-5.54-.98t-4.26-2.81q-1.76-1.83-2.73-4.43-.96-2.59-.96-5.83 0-3.2.96-5.8.97-2.6 2.73-4.4 1.77-1.8 4.26-2.78t5.54-.98m0 22.97q3.39 0 5.02-2.28t1.63-6.67q0-4.4-1.63-6.71-1.63-2.3-5.02-2.3-3.45 0-5.11 2.31-1.65 2.32-1.65 6.7 0 4.37 1.65 6.66 1.66 2.29 5.11 2.29m27.48 5.06q-3.56 0-5.45-2t-1.89-5.52v-15.19h-2.79q-.53 0-.9-.34-.37-.35-.37-1.03v-2.6l4.37-.72 1.38-7.42q.13-.53.5-.82.38-.29.96-.29h3.39v8.56h7.26v4.66h-7.26v14.74q0 1.27.62 1.99.63.71 1.71.71.61 0 1.02-.15.41-.14.72-.3.3-.16.54-.3.24-.15.48-.15.29 0 .48.15.18.14.39.43l1.96 3.18q-1.43 1.2-3.28 1.8-1.86.61-3.84.61m31.98-.42h-6.54v-22.26l-2.36-.37q-.77-.16-1.23-.54-.47-.39-.47-1.1v-2.68h4.06v-2.01q0-2.34.7-4.19.7-1.86 2.01-3.15 1.31-1.3 3.2-1.99 1.88-.69 4.24-.69 1.88 0 3.49.5l-.13 3.29q-.03.37-.21.59-.19.23-.49.35-.31.12-.7.16-.4.04-.85.04-1.17 0-2.08.25-.92.25-1.55.87-.64.63-.97 1.65t-.33 2.53v1.8h7.07v4.66h-6.86zm22.58-27.61q3.02 0 5.5.98t4.24 2.78 2.71 4.4q.96 2.6.96 5.8 0 3.24-.96 5.83-.95 2.6-2.71 4.43t-4.24 2.81-5.5.98q-3.05 0-5.54-.98t-4.25-2.81-2.73-4.43q-.97-2.59-.97-5.83 0-3.2.97-5.8t2.73-4.4 4.25-2.78 5.54-.98m0 22.97q3.39 0 5.02-2.28t1.63-6.67q0-4.4-1.63-6.71-1.63-2.3-5.02-2.3-3.45 0-5.1 2.31-1.66 2.32-1.66 6.7 0 4.37 1.66 6.66 1.65 2.29 5.1 2.29m35.3-22.55h6.54v27.19h-4q-1.3 0-1.64-1.19l-.45-2.18q-1.67 1.7-3.69 2.75-2.01 1.04-4.74 1.04-2.23 0-3.93-.75-1.71-.76-2.88-2.13-1.17-1.38-1.76-3.28-.6-1.89-.6-4.17v-17.28h6.55v17.28q0 2.49 1.15 3.85 1.15 1.37 3.46 1.37 1.69 0 3.18-.76 1.48-.75 2.81-2.08zm18.68 1.19.45 2.15q.82-.82 1.74-1.52.91-.71 1.93-1.2t2.19-.76q1.16-.28 2.54-.28 2.23 0 3.95.75 1.72.76 2.87 2.12 1.16 1.37 1.75 3.26.6 1.9.6 4.18v17.3h-6.55v-17.3q0-2.5-1.14-3.86-1.13-1.36-3.47-1.36-1.69 0-3.18.76-1.48.77-2.81 2.1v19.66h-6.54v-27.19h4q1.27 0 1.67 1.19m41.29 17.94v-12.19q-1.12-1.35-2.43-1.9-1.31-.56-2.82-.56-1.48 0-2.68.56-1.19.55-2.04 1.68t-1.3 2.86q-.45 1.74-.45 4.1 0 2.38.39 4.04.38 1.65 1.1 2.7.71 1.05 1.75 1.51 1.03.46 2.3.46 2.04 0 3.47-.84 1.43-.85 2.71-2.42m0-31.32h6.54v39.38h-4q-1.3 0-1.64-1.19l-.56-2.63q-1.64 1.89-3.78 3.05-2.13 1.17-4.96 1.17-2.23 0-4.08-.93-1.86-.93-3.2-2.69t-2.07-4.36q-.72-2.6-.72-5.93 0-3.03.82-5.62.82-2.6 2.36-4.51 1.53-1.91 3.68-2.98t4.82-1.07q2.28 0 3.9.71 1.61.72 2.89 1.94z"/></svg>