<svg xmlns="http://www.w3.org/2000/svg" width="400" height="400" viewBox="0 0 400 400"><rect width="100%" height="100%" fill="#DDDDDD"/><path fill="#999999" d="M85.405 193.245h2.25v13.74h-1.31q-.3 0-.51-.1-.2-.1-.39-.34l-7.17-9.16q.05.63.05 1.16v8.44h-2.25v-13.74h1.34q.16 0 .28.02.12.01.21.05.09.05.18.13.08.08.19.21l7.2 9.2q-.03-.33-.05-.66-.02-.32-.02-.6zm9.25 3.84q1.09 0 1.98.35.88.35 1.52 1 .63.65.97 1.58t.34 2.08q0 1.16-.34 2.09t-.97 1.58q-.64.66-1.52 1.01-.89.35-1.98.35t-1.98-.35-1.53-1.01q-.63-.65-.97-1.58-.35-.93-.35-2.09 0-1.15.35-2.08.34-.93.97-1.58.64-.65 1.53-1t1.98-.35m0 8.24q1.22 0 1.81-.82.58-.82.58-2.39 0-1.58-.58-2.41-.59-.82-1.81-.82-1.23 0-1.82.83-.6.83-.6 2.4 0 1.56.6 2.39.59.82 1.82.82m9.86 1.81q-1.28 0-1.96-.72-.68-.71-.68-1.98v-5.44h-.99q-.19 0-.33-.12-.13-.13-.13-.37v-.93l1.57-.26.49-2.66q.05-.19.18-.3.14-.1.35-.1h1.21v3.07h2.6v1.67h-2.6v5.28q0 .46.22.72.23.25.62.25.22 0 .36-.05.15-.05.26-.11t.19-.11q.09-.05.18-.05.1 0 .17.05.06.05.14.16l.7 1.14q-.51.43-1.18.64-.66.22-1.37.22m13.58-2.67v-1.64q-1.02.05-1.71.17-.69.13-1.11.33t-.6.47q-.18.26-.18.58 0 .62.37.88.36.27.95.27.72 0 1.25-.26.53-.27 1.03-.8m-4.96-5.12-.42-.75q1.69-1.54 4.05-1.54.86 0 1.53.28.68.28 1.14.78.47.5.71 1.19.24.7.24 1.52v6.16h-1.06q-.34 0-.52-.1t-.28-.4l-.21-.71q-.37.34-.72.59t-.73.42-.82.26q-.43.09-.95.09-.62 0-1.14-.16-.52-.17-.9-.5-.38-.34-.59-.83t-.21-1.15q0-.37.12-.74.13-.36.41-.69.28-.34.72-.63.45-.29 1.1-.51t1.52-.36q.86-.14 1.97-.17v-.57q0-.97-.42-1.44-.41-.47-1.2-.47-.57 0-.95.13-.37.13-.66.3-.28.16-.52.3-.23.13-.51.13-.25 0-.42-.13t-.28-.3m16.39-2.11h1.85l-3.86 9.75h-2.13l-3.87-9.75h1.94q.27 0 .44.13.18.12.23.31l1.88 5.21q.16.45.27.89t.2.87q.1-.43.21-.87t.27-.89l1.92-5.21q.07-.19.24-.31.17-.13.41-.13m8.25 7.23v-1.64q-1.02.05-1.71.17-.7.13-1.12.33-.41.2-.59.47-.18.26-.18.58 0 .62.36.88.37.27.96.27.72 0 1.25-.26.52-.27 1.03-.8m-4.96-5.12-.42-.75q1.68-1.54 4.05-1.54.85 0 1.53.28.67.28 1.14.78.46.5.7 1.19.25.7.25 1.52v6.16h-1.07q-.33 0-.51-.1t-.29-.4l-.21-.71q-.37.34-.72.59t-.73.42-.81.26-.96.09q-.61 0-1.14-.16-.52-.17-.9-.5-.38-.34-.59-.83t-.21-1.15q0-.37.13-.74.12-.36.4-.69.28-.34.73-.63.44-.29 1.09-.51.66-.22 1.52-.36t1.98-.17v-.57q0-.97-.42-1.44t-1.21-.47q-.57 0-.94.13-.38.13-.66.3-.29.16-.52.3-.23.13-.52.13-.25 0-.42-.13t-.27-.3m9.53-2.11h2.35v9.75h-2.35zm2.67-2.84q0 .31-.12.57-.12.27-.33.47-.2.2-.48.32-.27.11-.59.11-.3 0-.57-.11-.27-.12-.47-.32t-.32-.47q-.12-.26-.12-.57t.12-.59q.12-.27.32-.47t.47-.32.57-.12q.32 0 .59.12.28.12.48.32.21.2.33.47.12.28.12.59m2.1-1.53h2.35v14.12h-2.35zm9.85 11.6v-1.64q-1.02.05-1.71.17-.7.13-1.12.33-.41.2-.59.47-.18.26-.18.58 0 .62.36.88.37.27.96.27.72 0 1.25-.26.52-.27 1.03-.8m-4.96-5.12-.42-.75q1.68-1.54 4.05-1.54.85 0 1.53.28.67.28 1.14.78.46.5.7 1.19.25.7.25 1.52v6.16h-1.07q-.33 0-.51-.1t-.29-.4l-.21-.71q-.37.34-.72.59t-.73.42-.81.26-.96.09q-.61 0-1.14-.16-.52-.17-.9-.5-.38-.34-.59-.83t-.21-1.15q0-.37.13-.74.12-.36.4-.69.28-.34.73-.63.44-.29 1.09-.51.66-.22 1.52-.36t1.98-.17v-.57q0-.97-.42-1.44t-1.21-.47q-.57 0-.94.13-.38.13-.66.3-.29.16-.52.3-.23.13-.52.13-.25 0-.42-.13t-.27-.3m11.8.74v4.37q.39.49.87.69.47.2.99.2.54 0 .97-.2.43-.19.74-.61.3-.41.46-1.05t.16-1.54q0-1.6-.53-2.32-.53-.71-1.53-.71-.67 0-1.17.3-.51.31-.96.87m0-7.22v5.57q.58-.62 1.3-.98.72-.37 1.64-.37.85 0 1.53.33.67.34 1.15.96t.74 1.5q.26.89.26 1.99 0 1.19-.3 2.16-.29.97-.84 1.65-.54.69-1.31 1.07t-1.71.38q-.46 0-.83-.09t-.68-.25q-.32-.16-.58-.39-.26-.24-.5-.52l-.1.65q-.06.25-.2.36-.13.1-.37.1h-1.55v-14.12zm8.46 0h2.35v14.12h-2.35zm6.55 8.13h4.42q0-.46-.13-.86-.12-.41-.38-.71-.26-.31-.65-.48-.4-.18-.92-.18-1.01 0-1.6.58-.58.58-.74 1.65m5.98 1.41h-6.03q.06.75.26 1.3.21.54.56.9.34.36.81.53.47.18 1.04.18t.98-.13q.41-.14.72-.3t.54-.29q.24-.14.46-.14.29 0 .43.22l.68.86q-.39.45-.88.76-.48.31-1.01.5-.53.18-1.07.26-.55.07-1.06.07-1.02 0-1.89-.33-.88-.34-1.52-1-.65-.66-1.02-1.64-.37-.97-.37-2.25 0-1 .32-1.88.33-.88.93-1.53t1.47-1.03 1.96-.38q.93 0 1.71.3.77.29 1.33.86.57.56.88 1.38.32.82.32 1.88 0 .53-.11.72-.12.18-.44.18m7-5.17h2.36v9.75h-2.36zm2.68-2.84q0 .31-.12.57-.13.27-.33.47t-.48.32q-.28.11-.59.11-.3 0-.57-.11-.27-.12-.47-.32t-.32-.47q-.12-.26-.12-.57t.12-.59q.12-.27.32-.47t.47-.32.57-.12q.31 0 .59.12t.48.32.33.47q.12.28.12.59m4.11 3.27.16.77q.29-.29.62-.55.33-.25.69-.42.37-.18.79-.28.41-.1.91-.1.8 0 1.41.27.62.27 1.03.76.42.49.63 1.17.22.68.22 1.5v6.2h-2.35v-6.2q0-.9-.41-1.39-.41-.48-1.24-.48-.61 0-1.14.27-.54.28-1.01.75v7.05h-2.35v-9.75h1.44q.45 0 .6.43m26.77 2.45q0 1.51-.5 2.8t-1.41 2.23q-.92.94-2.2 1.46-1.28.53-2.85.53-1.56 0-2.84-.53-1.28-.52-2.2-1.46-.91-.94-1.42-2.23-.5-1.29-.5-2.8t.5-2.8q.51-1.28 1.42-2.22.92-.94 2.2-1.47t2.84-.53q1.05 0 1.97.24.92.25 1.69.69t1.38 1.07 1.04 1.41.65 1.69q.23.91.23 1.92m-2.62 0q0-1.13-.3-2.03-.3-.89-.86-1.52-.57-.63-1.37-.96t-1.81-.33q-1 0-1.81.33-.8.33-1.37.96-.56.63-.86 1.52-.31.9-.31 2.03t.31 2.03q.3.9.86 1.52.57.62 1.37.95.81.34 1.81.34 1.01 0 1.81-.34.8-.33 1.37-.95.56-.62.86-1.52t.3-2.03m7.53 6.87h-2.35v-7.98l-.84-.13q-.28-.06-.45-.2-.16-.14-.16-.39v-.96h1.45v-.72q0-.84.25-1.5.25-.67.73-1.13.47-.47 1.14-.72.67-.24 1.52-.24.67 0 1.25.18l-.04 1.17q-.01.14-.08.22t-.18.12q-.1.04-.25.06-.14.01-.3.01-.42 0-.75.09-.32.09-.55.32-.23.22-.35.59-.12.36-.12.9v.65h2.54v1.67h-2.46zm6.81 0h-2.35v-7.98l-.84-.13q-.28-.06-.44-.2-.17-.14-.17-.39v-.96h1.45v-.72q0-.84.25-1.5.26-.67.73-1.13.47-.47 1.14-.72.68-.24 1.52-.24.68 0 1.26.18l-.05 1.17q-.01.14-.08.22-.06.08-.17.12t-.26.06q-.14.01-.3.01-.42 0-.75.09-.32.09-.55.32-.23.22-.35.59-.12.36-.12.9v.65h2.54v1.67h-2.46zm3.81-14.12h2.35v14.12h-2.35zm4.77 4.37h2.35v9.75h-2.35zm2.68-2.84q0 .31-.13.57-.12.27-.32.47-.21.2-.48.32-.28.11-.59.11t-.58-.11q-.27-.12-.47-.32t-.32-.47q-.12-.26-.12-.57t.12-.59q.12-.27.32-.47t.47-.32.58-.12.59.12q.27.12.48.32.2.2.32.47.13.28.13.59m4.1 3.27.16.77q.3-.29.62-.55.33-.25.7-.42.36-.18.78-.28t.91-.1q.8 0 1.42.27t1.03.76.63 1.17q.21.68.21 1.5v6.2h-2.35v-6.2q0-.9-.4-1.39-.41-.48-1.25-.48-.61 0-1.14.27-.53.28-1.01.75v7.05h-2.34v-9.75h1.43q.46 0 .6.43m10.54 3.33h4.42q0-.46-.12-.86-.13-.41-.39-.71-.26-.31-.65-.48-.39-.18-.92-.18-1.01 0-1.6.58-.58.58-.74 1.65m5.98 1.41h-6.03q.06.75.26 1.3.21.54.56.9.34.36.81.53.47.18 1.04.18t.98-.13q.41-.14.72-.3t.55-.29q.23-.14.45-.14.29 0 .43.22l.68.86q-.39.45-.88.76-.48.31-1.01.5-.53.18-1.07.26-.55.07-1.06.07-1.02 0-1.89-.33-.88-.34-1.52-1-.65-.66-1.02-1.64-.37-.97-.37-2.25 0-1 .32-1.88.33-.88.93-1.53t1.47-1.03 1.97-.38q.92 0 1.7.3.77.29 1.34.86.56.56.87 1.38.32.82.32 1.88 0 .53-.11.72-.12.18-.44.18m20.26-9.16h1.93v13.74h-2.25v-8.87q0-.53.06-1.15l-4.15 7.8q-.3.56-.91.56h-.36q-.6 0-.9-.56l-4.2-7.83q.03.31.05.62.02.3.02.56v8.87h-2.25v-13.74h1.93q.17 0 .29.01t.22.05.18.12q.08.09.16.23l4.11 7.63q.17.3.3.63.14.32.27.66.14-.35.28-.68t.3-.63l4.06-7.61q.08-.14.16-.23.09-.08.19-.12t.22-.05.29-.01m8.93 3.84q1.09 0 1.98.35.88.35 1.52 1 .63.65.97 1.58t.34 2.08q0 1.16-.34 2.09t-.97 1.58q-.64.66-1.52 1.01-.89.35-1.98.35t-1.98-.35-1.53-1.01q-.63-.65-.97-1.58-.35-.93-.35-2.09 0-1.15.35-2.08.34-.93.97-1.58.64-.65 1.53-1t1.98-.35m0 8.24q1.22 0 1.81-.82.58-.82.58-2.39 0-1.58-.58-2.41-.59-.82-1.81-.82-1.23 0-1.82.83-.6.83-.6 2.4 0 1.56.6 2.39.59.82 1.82.82m12.73-1.23v-4.37q-.4-.48-.87-.68t-1.02-.2q-.53 0-.96.2-.42.2-.73.6-.3.41-.46 1.03t-.16 1.47.13 1.44q.14.6.4.97.25.38.63.54.37.17.82.17.73 0 1.25-.3.51-.31.97-.87m0-11.23h2.34v14.12h-1.43q-.47 0-.59-.43l-.2-.94q-.59.68-1.35 1.09-.77.42-1.79.42-.79 0-1.46-.33-.66-.33-1.14-.96-.48-.64-.75-1.57-.26-.93-.26-2.12 0-1.09.3-2.02.29-.93.84-1.61.55-.69 1.32-1.07.77-.39 1.73-.39.82 0 1.4.26t1.04.69zm6.51 8.13h4.43q0-.46-.13-.86-.13-.41-.38-.71-.26-.31-.65-.48-.4-.18-.92-.18-1.02 0-1.6.58-.59.58-.75 1.65m5.99 1.41h-6.04q.06.75.27 1.3.21.54.55.9t.81.53q.47.18 1.04.18t.99-.13q.41-.14.72-.3t.54-.29q.23-.14.45-.14.3 0 .44.22l.67.86q-.39.45-.87.76t-1.01.5q-.53.18-1.08.26-.54.07-1.05.07-1.02 0-1.9-.33-.87-.34-1.52-1-.64-.66-1.01-1.64-.37-.97-.37-2.25 0-1 .32-1.88t.93-1.53q.6-.65 1.47-1.03t1.96-.38q.92 0 1.7.3.78.29 1.34.86.56.56.88 1.38t.32 1.88q0 .53-.12.72-.11.18-.43.18"/></svg>